<?xml version="1.0" encoding="utf-8"?>
<!-- Generator: Adobe Illustrator 23.0.2, SVG Export Plug-In . SVG Version: 6.00 Build 0)  -->
<svg version="1.1" id="Capa_1" xmlns="http://www.w3.org/2000/svg" xmlns:xlink="http://www.w3.org/1999/xlink" x="0px" y="0px"
	 viewBox="0 0 28.8 28.8" style="enable-background:new 0 0 28.8 28.8;" xml:space="preserve">
<style type="text/css">
	.st0{fill:#034A7D;}
</style>
<title>ico_reimp</title>
<g>
	<g>
		<path id="XMLID_189_" class="st0" d="M12.6,9.1c0,1.4-0.5,2.6-1.5,3.6c-1,1-2.2,1.5-3.6,1.5h0c-2.8,0-5.1-2.3-5.1-5.1
			c0-1.4,0.5-2.6,1.5-3.6c1-1,2.2-1.5,3.6-1.5C10.3,4,12.6,6.3,12.6,9.1z"/>
		<path id="XMLID_190_" class="st0" d="M0.6,21.7C0.9,18.2,2.4,16,3.2,15c3.3,2.2,6.8,1.2,8.8,0c1.9,2.1,2.3,5.2,2.4,6.6L0.6,21.7z"
			/>
	</g>
	<g>
		<path id="XMLID_184_" class="st0" d="M26.4,14.6c0,1.4-0.5,2.6-1.5,3.6c-1,1-2.2,1.5-3.6,1.5h0c-2.8,0-5.1-2.3-5.1-5.1
			c0-1.4,0.5-2.6,1.5-3.6c1-1,2.2-1.5,3.6-1.5C24.1,9.5,26.4,11.8,26.4,14.6z"/>
		<path id="XMLID_183_" class="st0" d="M14.4,27.2c0.3-3.5,1.8-5.7,2.6-6.6c3.3,2.2,6.8,1.2,8.8,0c1.9,2.1,2.3,5.2,2.4,6.6
			L14.4,27.2z"/>
	</g>
</g>
</svg>
