<?xml version="1.0" encoding="utf-8"?>
<!-- Generator: Adobe Illustrator 23.0.1, SVG Export Plug-In . SVG Version: 6.00 Build 0)  -->
<svg version="1.1" id="Capa_1" xmlns="http://www.w3.org/2000/svg" xmlns:xlink="http://www.w3.org/1999/xlink" x="0px" y="0px"
	 viewBox="0 0 249 235" style="enable-background:new 0 0 249 235;" xml:space="preserve">
<style type="text/css">
	.st0{fill:#7B868C;}
</style>
<g>
	<g>
		<g>
			<path class="st0" d="M90.2,198.2c0,0.6-0.2,1-0.8,1.2c-1.6,0.5-3.2,0.8-4.5,0.8c-3.8,0-6.4-1.4-7.8-4.1c-3.2,2.8-6.9,4.1-11,4.1
				c-5.2,0-9.4-1.6-12.8-4.8c-3.3-3.2-5-7.3-5-12.3s1.7-9.1,5-12.3c3.3-3.2,7.6-4.8,12.8-4.8c3.6,0,6.7,1,9.4,2.9v-0.9
				c0-0.7,0.3-1,1-1h6.2c0.7,0,1,0.3,1,1v22.5c0,0.8,0.2,1.4,0.6,1.8c0.4,0.5,1,0.7,1.7,0.7c0.7,0,1.5-0.1,2.5-0.3
				c0.7-0.1,1.1,0.1,1.2,0.8L90.2,198.2z M66.1,193.5c2.8,0,5-1,6.8-2.9c1.7-1.9,2.6-4.4,2.6-7.5s-0.9-5.5-2.6-7.5s-4-2.9-6.8-2.9
				c-2.8,0-5.1,1-6.9,2.9s-2.7,4.4-2.7,7.5s0.9,5.5,2.7,7.5C61,192.6,63.3,193.5,66.1,193.5z"/>
			<path class="st0" d="M104.3,200.2c-2.8,0-5.1-0.7-6.8-2c-1.7-1.4-2.6-3.2-2.6-5.4v-39.9c0-0.7,0.3-1,1-1h6.2c0.7,0,1,0.3,1,1
				v37.7c0,0.8,0.2,1.4,0.6,1.8c0.4,0.5,1,0.7,1.7,0.7c0.7,0,1.5-0.1,2.5-0.3c0.7-0.1,1.1,0.1,1.2,0.8l0.5,4.6
				c0.1,0.6-0.2,1-0.8,1.2C107.2,200,105.7,200.2,104.3,200.2z"/>
			<path class="st0" d="M118.5,160.1c-1.4,0-2.6-0.5-3.6-1.4c-1-0.9-1.5-2-1.5-3.3s0.5-2.4,1.5-3.3s2.2-1.4,3.6-1.4
				c1.4,0,2.6,0.5,3.6,1.4c1,0.9,1.5,2,1.5,3.3s-0.5,2.4-1.5,3.3C121.1,159.6,119.9,160.1,118.5,160.1z M123.8,200.2
				c-2.8,0-5.1-0.7-6.8-2c-1.7-1.4-2.6-3.2-2.6-5.4v-24.7c0-0.7,0.3-1,1-1h6.2c0.7,0,1,0.3,1,1v22.5c0,0.8,0.2,1.4,0.6,1.8
				c0.4,0.5,1,0.7,1.7,0.7c0.7,0,1.5-0.1,2.5-0.3c0.7-0.1,1.1,0.1,1.2,0.8l0.5,4.6c0.1,0.6-0.2,1-0.8,1.2
				C126.7,200,125.2,200.2,123.8,200.2z"/>
			<path class="st0" d="M147.5,200.2c-4.5,0-8.2-0.9-11-2.8s-4.4-4.5-4.9-7.8c-0.1-0.7,0.2-1.1,1-1.1l5.6,0.1c0.5,0,0.9,0.3,1.1,0.9
				c1,3,3.7,4.5,8.2,4.5c1.9,0,3.5-0.3,4.7-1c1.2-0.7,1.8-1.5,1.8-2.6c0-1.3-0.7-2.2-2.2-2.8s-3.2-1-5.3-1.3
				c-2.1-0.3-4.1-0.6-6.2-1.1s-3.9-1.4-5.3-2.8c-1.5-1.5-2.2-3.5-2.2-6c0-3,1.3-5.5,3.9-7.4s6-2.8,10.2-2.8c3.9,0,7.2,0.9,9.9,2.6
				c2.7,1.7,4.2,4,4.7,6.9c0.1,0.7-0.2,1.1-1,1.1h-5.6c-0.6,0-0.9-0.2-1.1-0.6c-0.4-1.2-1.2-2.2-2.5-2.9c-1.3-0.7-2.7-1.1-4.4-1.1
				c-1.8,0-3.3,0.3-4.4,0.9s-1.6,1.5-1.6,2.5c0,1.2,0.5,2.1,1.6,2.7c1,0.7,2.3,1.1,3.9,1.3s3.2,0.5,5,0.8s3.5,0.8,5,1.3
				c1.5,0.5,2.8,1.5,3.9,2.8c1,1.4,1.6,3.1,1.6,5.3c0,3.1-1.3,5.6-4,7.6C155.2,199.3,151.7,200.2,147.5,200.2z"/>
			<path class="st0" d="M183.7,200.2c-5.4,0-9.7-1.6-12.9-4.7c-3.3-3.1-4.9-7.2-4.9-12.4s1.6-9.3,4.9-12.4s7.6-4.7,12.9-4.7
				c4.2,0,7.8,1,10.7,3.1c2.9,2.1,4.7,4.9,5.5,8.4c0.1,0.7-0.2,1.1-0.9,1.1h-6.4c-0.5,0-0.9-0.3-1.1-0.9c-0.5-1.4-1.5-2.6-2.9-3.5
				c-1.4-0.9-3.1-1.3-5-1.3c-2.9,0-5.2,0.9-7,2.8c-1.8,1.9-2.6,4.3-2.6,7.3c0,3,0.9,5.5,2.6,7.3c1.8,1.9,4.1,2.8,7,2.8
				c1.9,0,3.6-0.4,5-1.3s2.4-2,2.9-3.5c0.2-0.6,0.5-0.9,1.1-0.9h6.4c0.7,0,1,0.4,0.9,1.1c-0.7,3.5-2.5,6.3-5.5,8.4
				C191.5,199.2,187.9,200.2,183.7,200.2z"/>
			<path class="st0" d="M234.8,195.5c-3.3,3.1-7.6,4.7-13,4.7s-9.7-1.6-13-4.7s-4.9-7.2-4.9-12.4s1.6-9.3,4.9-12.4s7.6-4.7,13-4.7
				s9.7,1.6,13,4.7s4.9,7.2,4.9,12.4C239.7,188.3,238,192.4,234.8,195.5z M214.8,190.5c1.8,1.8,4.1,2.7,7,2.7s5.2-0.9,7-2.7
				c1.8-1.8,2.7-4.3,2.7-7.3s-0.9-5.5-2.7-7.3c-1.8-1.8-4.1-2.7-7-2.7s-5.2,0.9-7,2.7s-2.7,4.3-2.7,7.3
				C212.1,186.2,213,188.6,214.8,190.5z"/>
			<path class="st0" d="M41.9,152.4c0.6,0,1,0.5,1,1v28.9c0,5.6-1.6,10-4.9,13.2c-3.3,3.2-7.9,4.8-13.7,4.8c-5,0-9.1-1.3-12.3-4
				c-3.2-2.6-5.1-6.1-5.5-10.5c-0.1-0.7,0.2-1.1,1-1.1h6.6c0.6,0,0.9,0.3,1,0.9c0.4,2.1,1.4,3.9,3.2,5.1c1.8,1.3,4,1.9,6.7,1.9
				c2.9,0,5.1-1,6.9-2.9s2.6-4.5,2.6-7.8v-20.1c0-2.7-2.9-3.3-4.6-3.4h-0.5c-0.4,0-0.8-0.4-0.8-0.8v-4.6c0-0.5,0.4-0.8,0.8-0.8
				L41.9,152.4L41.9,152.4z"/>
		</g>
		<g>
			<path class="st0" d="M28.1,217.2c2.1,0,4.1,1,4.8,3.3h-1.8c-0.6-1.2-1.6-1.7-3-1.7c-2.2,0-3.6,1.7-3.6,3.8c0,2.2,1.4,3.9,3.6,3.9
				c1.8,0,3.1-0.7,3.4-2.8h-3.3v-1.5h5c0.1,3.2-1.4,5.9-5.1,5.9c-2.9,0-5.4-2-5.4-5.5C22.7,219.2,25.2,217.2,28.1,217.2z"/>
			<path class="st0" d="M41.2,228.1c-2.9,0-5.4-2-5.4-5.5c0-3.5,2.5-5.5,5.4-5.5c2.9,0,5.4,2,5.4,5.5
				C46.6,225.9,44.4,228.1,41.2,228.1z M41.2,226.4c2,0,3.6-1.3,3.6-3.8c0-2.4-1.6-3.8-3.6-3.8c-2,0-3.6,1.3-3.6,3.8
				C37.6,225.1,39.2,226.4,41.2,226.4z"/>
			<path class="st0" d="M56.4,222.4c1.1,0.4,1.7,1.3,1.7,2.5c0,1.9-1.3,3.1-3.4,3.1H50v-10.6h4.3c1.9,0,3.3,1,3.3,3
				C57.6,221.2,57.2,222,56.4,222.4z M51.7,218.8v3h2.4c1,0,1.7-0.4,1.7-1.5c0-1-0.7-1.5-1.7-1.5H51.7z M51.7,223.3v3.1h2.9
				c1,0,1.7-0.5,1.7-1.5c0-0.5-0.2-1-0.6-1.3c-0.4-0.3-0.9-0.3-1.4-0.3H51.7z"/>
			<path class="st0" d="M65.9,226.5v1.4h-5.1v-1.4h1.7v-7.8h-1.6v-1.4h4.9v1.4h-1.6v7.8H65.9z"/>
			<path class="st0" d="M75.6,218.9h-4.7v2.8h4.4v1.6h-4.4v3.1h4.8v1.6h-6.6v-10.6h6.5L75.6,218.9L75.6,218.9z"/>
			<path class="st0" d="M87.7,227.7v0.3h-1.8l-2.6-3.7h-2.3v3.7h-1.8v-10.6h4.4c2.3,0,3.7,1.6,3.7,3.5c0,1.5-0.9,2.7-2.2,3.2
				L87.7,227.7z M83.5,222.8c1.1,0,2-0.8,2-2c0-1.1-0.8-1.9-2-1.9h-2.6v3.9H83.5z"/>
			<path class="st0" d="M92.5,220.7l0.1,3.4v3.9h-1.8v-10.6h0.6l6.5,7.1l-0.1-3.2v-3.9h1.8v10.6H99L92.5,220.7z"/>
			<path class="st0" d="M108.3,228.1c-2.9,0-5.4-2-5.4-5.5c0-3.5,2.5-5.5,5.4-5.5c2.9,0,5.4,2,5.4,5.5
				C113.8,225.9,111.5,228.1,108.3,228.1z M108.3,226.4c2,0,3.6-1.3,3.6-3.8c0-2.4-1.6-3.8-3.6-3.8c-2,0-3.6,1.3-3.6,3.8
				C104.7,225.1,106.3,226.4,108.3,226.4z"/>
			<path class="st0" d="M126.1,217.3c3.3,0,5.2,2.5,5.2,5.3s-1.9,5.3-5.2,5.3h-3.8v-10.6H126.1z M126,226.3c2.2,0,3.5-1.7,3.5-3.7
				s-1.3-3.7-3.4-3.7H124v7.4L126,226.3L126,226.3z"/>
			<path class="st0" d="M141.1,218.9h-4.7v2.8h4.4v1.6h-4.4v3.1h4.8v1.6h-6.6v-10.6h6.5L141.1,218.9L141.1,218.9z"/>
			<path class="st0" d="M146.5,226.3h4.6v1.6h-6.3v-10.6h1.8L146.5,226.3L146.5,226.3z"/>
			<path class="st0" d="M165.1,218.9h-4.7v2.8h4.4v1.6h-4.4v3.1h4.8v1.6h-6.6v-10.6h6.5L165.1,218.9L165.1,218.9z"/>
			<path class="st0" d="M169.7,224.9c0.1,1.2,1.4,1.6,2.5,1.6c1.1,0,2.5-0.3,2.5-1.6c0-1.4-1.4-1.5-2.7-1.6
				c-1.9-0.2-3.9-0.8-3.9-2.9c0-2.2,1.9-3.2,4-3.2c2,0,3.9,0.9,4,3.1h-1.6c-0.1-1.1-1.3-1.5-2.4-1.5c-1,0-2.2,0.3-2.2,1.5
				s1.2,1.4,2.4,1.5c2.1,0.2,4.1,0.7,4.1,3.1c0,2.3-2.2,3.2-4.2,3.2c-2.1,0-4.2-0.9-4.3-3.2L169.7,224.9L169.7,224.9z"/>
			<path class="st0" d="M178.6,218.9v-1.6h7.9v1.6h-3.1v9.1h-1.7v-9.1H178.6z"/>
			<path class="st0" d="M190.3,225.7l-1,2.2h-1.9v-0.2l4.9-10.5h0.8l4.9,10.5v0.2h-1.8l-1-2.2H190.3z M190.8,224.2h3.7l-1.9-4.2
				L190.8,224.2z"/>
			<path class="st0" d="M204.5,217.3c3.3,0,5.2,2.5,5.2,5.3s-1.9,5.3-5.2,5.3h-3.8v-10.6H204.5z M204.5,226.3c2.2,0,3.5-1.7,3.5-3.7
				s-1.3-3.7-3.4-3.7h-2.1v7.4L204.5,226.3L204.5,226.3z"/>
			<path class="st0" d="M217.9,228.1c-2.9,0-5.4-2-5.4-5.5c0-3.5,2.5-5.5,5.4-5.5c2.9,0,5.4,2,5.4,5.5
				C223.3,225.9,221,228.1,217.9,228.1z M217.9,226.4c2,0,3.6-1.3,3.6-3.8c0-2.4-1.6-3.8-3.6-3.8c-2,0-3.6,1.3-3.6,3.8
				C214.2,225.1,215.9,226.4,217.9,226.4z"/>
		</g>
		<g>
			<g>
				<path class="st0" d="M121.9,23.8v5.9c0,0,1-0.3,2.4,0l0,0v-5.9C123,23.4,121.9,23.8,121.9,23.8z"/>
				<path class="st0" d="M97.4,25.4c0,0.4,0.3,0.7,0.6,0.8c2.6,1.2,5.2,1.8,7.8,1.8c3.5,0,7-1.1,10.1-3.2c4.2-2.9,10-3.1,14.4-0.6
					c-0.7,0.6-1.9,1.4-3.8,1.4h-0.9v2.1h0.9c4.2,0,6-2.9,6.2-3.2l0,0c0,0,0,0,0,0l0,0c0.1-0.1,0.1-0.3,0.1-0.5V11.5
					c0-0.3-0.2-0.7-0.5-0.9c-5.2-3.6-12.5-3.6-17.7,0c-4.9,3.3-10.5,3.8-15.8,1.3c-0.5-0.2-1-0.1-1.3,0.4s-0.2,1,0.2,1.4l6.8,5.9
					l-6.7,4.9C97.5,24.6,97.3,25,97.4,25.4z M106.8,20.4c0.3-0.2,0.4-0.5,0.4-0.8c0-0.3-0.1-0.6-0.4-0.8l-4-3.4c4.5,0.8,9-0.3,13-3
					c4.4-3,10.4-3.1,14.9-0.3v10c-5-2.6-11.4-2.2-16.1,1c-4.4,3-9.3,3.6-14.1,2L106.8,20.4z"/>
				<polygon class="st0" points="121.9,18.7 124.3,18.7 124.3,16.4 126.5,16.4 126.5,14 124.3,14 124.3,11.8 121.9,11.8 121.9,14 
					119.6,14 119.6,16.4 121.9,16.4 				"/>
				<path class="st0" d="M173.7,104.5c0.8-0.9,1.5-1.8,2.3-2.7c3.1-3.6,6.3-7.2,8.5-11.8c1.8-3.9,2.5-7.9,2-11.6
					c-0.9-6.5-5.2-11.9-10.9-14.3c1-1.6,1.4-3.5,1.2-5.4c0,0,0,0,0,0c0-0.4-0.4-0.8-0.8-0.9s-0.9,0-1.2,0.3c-0.6,0.6-1.3,1-2.1,1.2
					c-0.8,0.2-1.7,0.1-2.5-0.1l-0.2-0.1c-2.5-0.9-5.1-1.4-7.7-1.4c-1.1,0-2.1,0.1-3.2,0.2c0,0,0-0.1,0-0.2c0-0.8-0.1-1.6-0.4-2.3
					c-0.1-0.3-0.4-0.6-0.7-0.7c-0.3-0.1-0.7-0.1-1,0.1c-0.5,0.3-1,0.4-1.5,0.4c-0.1,0-0.2,0-0.4,0c-0.6-0.1-1.2-0.1-1.7-0.1
					c-0.8,0-1.6,0.1-2.4,0.2c-0.8,0.1-1.6,0.3-2.3,0.5c-0.8,0.2-1.5,0.5-2.2,0.8s-1.4,0.7-2,1.1c-0.7,0.4-1.3,0.9-1.9,1.3
					c-0.6,0.5-1.2,1-1.7,1.6c-0.3,0.4-0.7,0.7-1,1.1s-0.6,0.8-0.8,1.2c-0.5,0.8-1,1.7-1.6,2.5c-0.1,0.1-0.1,0.2-0.2,0.3
					c0,0-0.1,0.1-0.1,0.1c0,0-0.1,0.1-0.1,0.1c0,0,0,0,0,0c0,0,0,0,0,0c-0.2,0.2-0.3,0.4-0.5,0.6c-0.2,0.2-0.4,0.5-0.6,0.7
					c-0.3,0.3-0.6,0.6-0.9,1c-0.1,0.1-0.2,0.2-0.4,0.4c-0.2,0.2-0.5,0.4-0.7,0.6c-0.1,0.1-0.1,0.1-0.2,0.2l-3.5-2.4l-0.5-3.3
					c0.2-0.4,0.5-0.7,0.6-1.1l0.1-0.2c0.1-0.2,0.2-0.4,0.3-0.6l0.1-0.2c0.1-0.2,0.1-0.4,0.2-0.5c0-0.1,0.1-0.1,0.1-0.2
					c0-0.1,0.1-0.2,0.1-0.2l1-0.2l0.8-5.6l0,0v0l-1-0.2c0-0.2,0-0.4-0.1-0.5c0-0.2-0.1-0.5-0.1-0.7c-0.2-0.7-0.4-1.3-0.7-1.9
					c0,0,0-0.1,0-0.1c-0.9-1.6-2.2-2.9-4.1-3.6c0,0-0.1,0-0.1,0c0,0,0-0.1,0.1-0.2c0-0.1,0.1-0.2,0.1-0.4c0.6-1.5,1.8-2.7,3.3-3.5
					c0.2,0.6,0.4,1,0.4,1c0.2,0.5,0.6,0.7,1.1,0.7c0.3,0,0.6-0.1,0.8-0.3c0.4-0.3,0.7-0.7,1-1.1c1.3-2.1,1.5-4.8,0.5-7.1
					c-0.8-1.9-2.4-3.1-4.4-3.2c-0.5,0-1.2,0.1-1.9,0.3c-0.8-1.9-2.9-3.1-5-3.1s-4.2,1.3-5,3.1c-0.7-0.3-1.4-0.4-1.9-0.3
					c-1.9,0.1-3.5,1.3-4.4,3.2c-1,2.3-0.8,5,0.5,7.1c0.3,0.4,0.6,0.8,1,1.1c0.3,0.2,0.5,0.3,0.8,0.3c0.5,0,0.9-0.1,1.1-0.7
					c0,0,0.1-0.4,0.4-1c1.4,0.7,2.6,2,3.3,3.5c0,0.1,0.1,0.2,0.1,0.4c0,0,0,0.1,0.1,0.2c0,0-0.1,0-0.1,0c-1.9,0.6-3.2,1.9-4.1,3.6
					c0,0,0,0.1,0,0.1c-0.3,0.6-0.6,1.3-0.7,1.9c-0.1,0.2-0.1,0.5-0.1,0.7c0,0.2,0,0.4-0.1,0.5l-1,0.2v0l0,0l0.8,5.6l1,0.2
					c0,0.1,0,0.2,0.1,0.2c0,0.1,0.1,0.1,0.1,0.2c0.1,0.2,0.1,0.4,0.2,0.5l0.1,0.2c0.1,0.2,0.2,0.4,0.3,0.6l0.1,0.2
					c0.2,0.4,0.4,0.7,0.7,1.1l-0.5,3.3l-3.5,2.4c-0.7-0.5-1.3-1.1-1.9-1.8c-0.1-0.1-0.2-0.2-0.3-0.3c-0.4-0.4-0.8-0.9-1.1-1.3
					c0,0,0,0,0-0.1c0,0-0.1-0.1-0.1-0.1c0,0-0.1-0.1-0.1-0.1c-0.1-0.1-0.1-0.2-0.2-0.3c-0.5-0.8-1-1.7-1.6-2.5
					c-0.3-0.4-0.5-0.8-0.8-1.2c-0.3-0.4-0.6-0.7-1-1.1c-0.5-0.6-1.1-1.1-1.7-1.6c-0.6-0.5-1.2-0.9-1.9-1.3s-1.3-0.8-2-1.1
					s-1.5-0.6-2.2-0.8c-0.8-0.2-1.5-0.4-2.3-0.5c-0.8-0.1-1.6-0.2-2.4-0.2c-0.5,0-1,0-1.7,0.1c-0.1,0-0.2,0-0.4,0
					c-0.5,0-1-0.1-1.5-0.4c-0.3-0.2-0.6-0.2-1-0.1c-0.3,0.1-0.6,0.4-0.7,0.7c-0.2,0.8-0.4,1.5-0.4,2.3c0,0.1,0,0.1,0,0.2
					c-1.2-0.2-2.4-0.3-3.6-0.3c-2.7,0-5.3,0.5-7.7,1.4l-0.2,0.1c-0.8,0.3-1.7,0.3-2.5,0.1c-0.8-0.2-1.6-0.6-2.1-1.2
					c-0.3-0.3-0.8-0.4-1.2-0.3c-0.4,0.1-0.7,0.5-0.8,0.9c0,0,0,0,0,0c-0.2,1.9,0.2,3.8,1.2,5.4c-5.7,2.4-10,7.8-10.9,14.3
					c-0.5,3.7,0.2,7.7,2,11.6c2.1,4.5,5.3,8.2,8.5,11.8c0.8,0.9,1.6,1.8,2.3,2.7c0.2,0.3,0.5,0.6,0.8,0.9c1.9,2.2,4.1,4.8,4.1,7.2
					c0,2.6-1.6,4.2-4.2,4.2c-0.6,0-1.1-0.1-1.6-0.3c-0.2-0.1-0.4-0.1-0.6-0.1v0c0,0-2.2-0.3-2.8,1.7c-0.2,0-0.4,0-0.6,0.1
					c-1.1,0.3-1.8,1.3-1.6,2.4l0,0.1c0.8,6.5,6.4,11.7,12.9,11.7h0.2c3,0,5.9-1.1,8.1-2.9c0,0,0,0,0.1,0.1c0.4,0.5,1,0.7,1.6,0.7
					c0.5,0,0.9-0.1,1.3-0.4c1.8-1.3,3.3-2.9,4.3-4.8l0,0c0.1-0.1,0.2-0.3,0.2-0.5c0.1,0.1,0.1,0.3,0.2,0.4c0.2,0.3,0.3,0.5,0.5,0.8
					c5.8,9,16.5,14.5,28,14.5c11.5,0,22.2-5.6,28-14.5c0.2-0.2,0.3-0.5,0.5-0.8c0.1-0.1,0.1-0.3,0.2-0.4c0.1,0.2,0.2,0.3,0.2,0.5
					l0,0c1,1.9,2.5,3.5,4.3,4.8c0.4,0.3,0.9,0.4,1.3,0.4c0.6,0,1.2-0.2,1.6-0.7c0,0,0,0,0.1-0.1c2.3,1.8,5.1,2.8,8.1,2.9h0.2
					c6.5,0,12.1-5.1,12.9-11.7l0-0.1c0.1-1.1-0.6-2.1-1.6-2.4c-0.2-0.1-0.4-0.1-0.6-0.1c-0.6-2-2.8-1.7-2.8-1.7v0
					c-0.2,0-0.4,0-0.6,0.1c-0.5,0.2-1.1,0.3-1.6,0.3c-2.6,0-4.2-1.6-4.2-4.2c0-2.4,2.2-5,4.1-7.2
					C173.2,105.1,173.5,104.8,173.7,104.5z M162.4,59.9c2.4,0,4.7,0.4,6.9,1.3l0.2,0.1c1.2,0.4,2.5,0.5,3.8,0.2
					c0.4-0.1,0.8-0.2,1.2-0.4c-0.2,0.8-0.5,1.6-1,2.3c0,0-2.9-0.6-4.5-0.6c-5.9,0-11,3.1-13.9,7.8c-0.3-1-1.3-1.7-2.5-1.7H146
					C149.6,63.3,155.7,59.9,162.4,59.9z M164.7,87.9c0.1,0.2,0.1,0.4,0.2,0.5c0,0,1.6,4.4,6.5,4.2c0.1,0,0.2,0,0.2,0c0,0,0,0,0,0
					l0,0c-4.9,5-11.8,7.7-16.5,13v-18c0.2-0.2,0.4-0.3,0.5-0.5c1.3-1.4,2.5-2.9,3.9-4.3c2.1-2,4.4-3.8,7.4-4.2
					c1.2-0.2,2.4-0.2,3.5,0.4c0.6,0.4,1.1,0.9,1.4,1.4c0,0,1,2-0.6,3.6c-0.1,0.1-0.2,0.2-0.3,0.2c-0.5,0.3-1,0.5-1.6,0.6
					c-0.4,0-0.8,0-1.1-0.1c-0.4-0.2-0.9-0.2-1.3-0.2c-0.7,0.1-1.3,0.4-1.7,1C165.2,85.5,164.3,86.5,164.7,87.9z M131.1,56.4l-0.2,2
					l0,0h0l0,0l-1.1,0.2l-1.1,0.2v-3c0.5,0.1,0.9,0.2,1.4,0.3C130.4,56.2,130.8,56.3,131.1,56.4z M123.1,62.3L123.1,62.3L123.1,62.3
					l5.8-1.2c0,0,0,0,0,0c-0.2,0.4-0.5,0.9-0.8,1.3c-0.2,0.3-0.4,0.6-0.6,0.9c-1.1,1.4-2.6,2.4-4.4,2.4c-1.8,0-3.3-1.1-4.4-2.4
					c-0.2-0.3-0.4-0.6-0.6-0.9c-0.3-0.4-0.5-0.9-0.8-1.3c0,0,0,0,0,0L123.1,62.3z M119.7,59.3v-4c0.9-0.2,1.7-0.4,2.3-0.5v5
					L119.7,59.3z M124.2,59.8v-5c0.6,0.1,1.4,0.3,2.3,0.5v4L124.2,59.8z M116.7,41.5c0.5-0.7,1-1.3,1.7-1.6c0,0-2.1,0-4.4,2.1
					c-0.6-1.4-0.6-3,0-4.4c0.5-1.1,1.3-1.7,2.4-1.8c0.7,0,1.5,0.2,2.3,0.6c1.7,0.9,3,2.6,3.5,4.5c0,0,0.5-2.5-1.5-5.1
					c-0.2-0.2-0.4-0.5-0.6-0.7c0.4-1.2,1.7-2.2,3-2.2c1.4,0,2.7,0.9,3,2.2c-0.2,0.2-0.4,0.4-0.6,0.7c-1.9,2.6-1.5,5.1-1.5,5.1
					c0.4-1.9,1.7-3.6,3.5-4.5c0.8-0.4,1.6-0.6,2.3-0.6c1,0.1,1.9,0.7,2.4,1.8c0.6,1.4,0.6,3,0,4.4c-2.3-2.1-4.4-2.1-4.4-2.1
					c0.7,0.4,1.2,1,1.7,1.6c-1.9,1-3.5,2.6-4.3,4.5c-0.1,0.1-0.1,0.3-0.2,0.4c0,0.1-0.1,0.2-0.1,0.3c-0.6-0.3-1.2-0.6-1.8-0.9
					c0,0,0,0,0,0c0,0,0,0,0,0c-0.6,0.3-1.2,0.7-1.8,0.9c0-0.1-0.1-0.2-0.1-0.3c-0.1-0.1-0.1-0.3-0.2-0.4
					C120.1,44.1,118.5,42.4,116.7,41.5z M120,49.6c0.5-0.2,1.1-0.3,1.6-0.5c0.5-0.2,1-0.5,1.5-0.8c0.5,0.3,1,0.6,1.5,0.8
					c0.5,0.2,1.1,0.4,1.6,0.5c1.9,0.7,3.1,2.2,3.6,4.1c-6.1-1.5-6.5-1.6-6.6-1.6l0,0l0,0c0,0,0,0,0,0l0,0l0,0
					c-0.1,0-0.6,0.1-6.6,1.6C116.9,51.9,118.1,50.3,120,49.6z M115.3,58.4L115.3,58.4L115.3,58.4L115.3,58.4l-0.3-2
					c0.4-0.1,0.7-0.2,1.1-0.2c0.5-0.1,0.9-0.2,1.4-0.3v3l-1.1-0.2L115.3,58.4z M117.8,68l0.3-2c0,0,0.1,0.1,0.1,0.1
					c1.3,1.2,2.9,2,4.8,2c0,0,0,0,0,0s0,0,0,0c1.9,0,3.4-0.8,4.8-2c0,0,0.1-0.1,0.2-0.2l0.4,2l3.8,2.6c-0.2,0.1-0.4,0.2-0.6,0.3
					c-1.6,0.9-3.4,1.6-5.2,2c-1.1,0.3-2.2,0.5-3.3,0.5c-1,0-2-0.2-2.9-0.4c-1.9-0.4-3.7-1.1-5.3-2c-0.3-0.1-0.5-0.3-0.8-0.5
					L117.8,68z M72.5,61.5c1.3,0.3,2.6,0.2,3.8-0.2l0.2-0.1c2.2-0.9,4.6-1.3,6.9-1.3c6.7,0,12.8,3.4,16.4,8.9h-6.7
					c-1.2,0-2.2,0.7-2.5,1.7c-2.9-4.6-8-7.8-13.9-7.8c-1.6,0-4.5,0.6-4.5,0.6c-0.5-0.7-0.8-1.5-1-2.3C71.6,61.2,72,61.4,72.5,61.5z
					 M93.4,119.2c0,0.2,0,0.4-0.1,0.5c0,0,0,0.1,0,0.1c0,0.2-0.1,0.4-0.1,0.6c0,0,0,0,0,0c-0.2,0.9-0.4,1.7-0.8,2.5c0,0,0,0.1,0,0.1
					c-0.1,0.1-0.1,0.3-0.2,0.4c0,0.1-0.1,0.2-0.2,0.3c-0.9,1.7-2.2,3.1-3.7,4.2c1.4-2,2.3-4.4,2.3-7c0-1.2-0.2-2.3-0.5-3.4l0,0
					c-0.2,2.5-1,4.9-2.2,7l0,0c-1.9,3.3-5.4,5.4-9.4,5.5c0,0-0.1,0-0.1,0c-5.2,0-10-4.3-10.6-9.7v0l0,0c0,0,0,0,0.1,0.1
					c1.4,2.2,3.9,3.6,6.7,3.6c4.3,0,7.7-3.3,8-7.5c-0.6,1.6-1.9,3.1-3.5,4c0,0,0,0-0.1,0.1c-0.5,0.2-0.9,0.5-1.4,0.6
					c-2.1,0.7-5.8,1.2-7.9-2.9c0.2,0,0.3,0.1,0.5,0.2c0.4,0.1,0.7,0.3,1.1,0.4c0.4,0.1,0.8,0.1,1.2,0.1c0.4,0,0.7,0,1.1,0
					c0.2,0,0.4,0,0.6-0.1c0.1,0,0.3,0,0.4-0.1c0.6-0.1,1.1-0.3,1.6-0.6c0.5-0.3,0.9-0.6,1.3-1c0.4-0.4,0.7-0.8,1-1.3
					c0.3-0.5,0.5-1,0.6-1.6c0.1-0.6,0.2-1.2,0.2-1.8c0-3.7-3.2-7-5.5-9.6c-3.7-4.4-7.9-8.6-10.4-13.9c-1.5-3.2-2.3-6.8-1.8-10.3
					c1-7.7,7.4-13.7,15.2-13.7c5.2,0,9.8,2.9,12.2,7.1c0.2,0.4,1.6,3.1,1.6,5.3v6.4c0,0,0,0,0,0c-1.7-1.9-3.2-3.7-5.3-5.1
					c-3-2.2-7.5-3.7-11-1.8c-3,1.7-3.9,5.6-2,8.5c0,0,1.9,3,6,1.9c0,0-1.3,4.1-6.1,2.3c-0.4-0.1-0.7-0.3-1-0.5
					c-0.6-0.4-1.1-0.9-1.6-1.4c-0.2-0.3-0.5-0.6-0.7-0.9c-0.3-0.4-0.5-0.9-0.8-1.3c-0.3-0.6-0.5-1.2-0.6-1.8
					c-0.3-1.9-0.1-3.8,0.8-5.5c1.3-2.5,3.8-4.6,6.6-5.4c2.9-0.8,6.6-0.4,9.2,1.1c0.4,0.2,0.8,0.5,1.1,0.8c0.3,0.2,0.6,0.4,0.9,0.8
					c-1.5-3.1-5.4-4.8-8.6-4.9C73.7,70.2,70,72,67.7,75c-2.2,2.7-3,6.3-2.4,9.7c0.7,3.7,3.6,6.9,6,9.7c4.2,5,8.5,10,11.7,15.8
					c1.2,2.3,1.8,4.6,1.8,7.2c0,5.1-4,9.3-9.1,9.5h0c0.5,0.1,1.1,0.1,1.7,0.1c1.3,0,2.5-0.2,3.7-0.7c2.1-0.9,3.8-2.5,4.9-4.4
					c4.3-8-2.5-16.1-7.2-22c-0.3-0.4-1.8-2.1-2.5-2.9l5.5,4c1.1,0.8,2.2,1.6,3.3,2.5c1.6,1.3,3.1,2.7,4.4,4.4
					C91.8,110.7,93.7,114.9,93.4,119.2z M74,92.6C74.1,92.6,74,92.6,74,92.6c0.1,0,0.2,0,0.3,0c4.9,0.1,6.5-4.2,6.5-4.2
					c0.1-0.2,0.1-0.4,0.2-0.5c0.5-1.4-0.4-2.4-0.4-2.4c-0.4-0.5-1.1-0.9-1.7-1c-0.4,0-0.9,0-1.3,0.2c-0.3,0.1-0.7,0.1-1.1,0.1
					c-0.6,0-1.1-0.3-1.6-0.6c-0.1-0.1-0.2-0.1-0.3-0.2c-1.6-1.5-0.6-3.6-0.6-3.6c0.3-0.6,0.7-1.1,1.4-1.4c1-0.6,2.3-0.6,3.5-0.4
					c3,0.4,5.3,2.1,7.4,4.2c1.4,1.4,2.6,2.9,3.9,4.3c0.1,0.1,0.3,0.3,0.5,0.5v18C85.8,100.4,79,97.7,74,92.6L74,92.6z M150.1,119.3
					c0,0,0,0.1,0,0.1c0.1,0.7,0.2,1.4,0.3,2v0c-0.4,0.9-0.8,1.7-1.3,2.5c-0.1,0.2-0.3,0.5-0.4,0.7c-5.1,8-14.8,13.4-25.8,13.4
					c-11,0-20.6-5.4-25.8-13.4c-0.1-0.2-0.3-0.5-0.4-0.7c-0.5-0.8-0.9-1.7-1.3-2.5c0,0,0,0,0,0c0.1-0.7,0.2-1.4,0.3-2
					c0,0,0-0.1,0-0.1c0.2-3.4-0.6-7-2.5-10.2c0,0,0,0,0,0v-38h10.7c-1.4-2.3,0,0-1.4-2.3h0c0,0,0,0.1,0.1,0.1
					c-2.9-5.2-7.6-8.9-13.2-10.5c0-0.2-0.1-0.5-0.1-0.7c0-0.1,0-0.3,0-0.4c0.6,0.1,1.2,0.2,1.8,0.1c0.6,0,1-0.1,1.5-0.1
					c0.1,0,0.2,0,0.4,0c0.8,0,1.6,0.1,2.4,0.2c0.8,0.1,1.5,0.4,2.3,0.6c0.7,0.3,1.4,0.6,2.1,1c0.7,0.4,1.3,0.8,1.9,1.3
					c0.6,0.5,1.2,1,1.7,1.5c0.6,0.6,1.1,1.2,1.5,1.9c0.5,0.8,1,1.6,1.6,2.5c0.5,0.8,1.1,1.6,1.8,2.3c0.5,0.5,0.9,1,1.4,1.4
					c0.2,0.2,0.5,0.4,0.7,0.6c0,0,0,0,0.1,0.1c0.2,0.2,0.5,0.4,0.7,0.6c0,0,0.1,0,0.1,0.1c0.2,0.2,0.5,0.4,0.7,0.5
					c0,0,0.1,0,0.1,0.1c0.2,0.2,0.5,0.4,0.8,0.5c0,0,0,0,0.1,0c1.1,0.7,2.2,1.3,3.4,1.7c0.1,0,0.1,0,0.2,0.1
					c0.2,0.1,0.4,0.2,0.6,0.2c0.5,0.2,1.1,0.4,1.6,0.5c1.4,0.4,2.9,0.6,4.4,0.7c1.5,0,3-0.3,4.4-0.7c0.5-0.1,1.1-0.3,1.6-0.5
					c0.2-0.1,0.4-0.1,0.6-0.2c0.1,0,0.1,0,0.2-0.1c1.2-0.5,2.3-1,3.4-1.7c0,0,0,0,0.1,0c0.3-0.2,0.5-0.3,0.8-0.5c0,0,0.1,0,0.1-0.1
					c0.2-0.2,0.5-0.4,0.7-0.5c0,0,0.1,0,0.1-0.1c0.1-0.1,0.1-0.1,0.2-0.2h0c0.1,0,0.1-0.1,0.2-0.1c0.1-0.1,0.2-0.2,0.3-0.2
					c0,0,0,0,0.1-0.1c0.2-0.2,0.4-0.4,0.6-0.5c0,0,0.1-0.1,0.1-0.1l0,0c0.5-0.5,1-0.9,1.4-1.4c0.3-0.3,0.6-0.7,0.9-1
					c0.1-0.1,0.1-0.1,0.2-0.2c0.2-0.3,0.5-0.6,0.7-0.9c0,0,0-0.1,0.1-0.1c0,0,0-0.1,0.1-0.1c0.1-0.2,0.3-0.5,0.4-0.7
					c0.4-0.6,0.7-1.1,1.1-1.7c0.5-0.7,1-1.3,1.5-1.9c0.5-0.6,1.1-1.1,1.7-1.5c0.6-0.5,1.3-0.9,1.9-1.3c0.7-0.4,1.4-0.7,2.1-1
					c0.7-0.3,1.5-0.5,2.3-0.6c0.8-0.1,1.6-0.2,2.4-0.2c0.1,0,0.2,0,0.4,0c0.4,0,0.9,0,1.5,0.1c0.6,0.1,1.2,0,1.8-0.1
					c0,0.1,0,0.3,0,0.4c0,0.2,0,0.4,0,0.6c-5.7,1.5-10.7,5.3-13.6,10.6c0,0,0-0.1,0.1-0.1h0c-1.4,2.3,0,0-1.4,2.3h10.7v38
					c0,0,0,0,0,0C150.7,112.3,149.9,115.9,150.1,119.3z M166.5,112.6c0,0.6,0.1,1.2,0.2,1.8c0.1,0.6,0.3,1.1,0.6,1.6
					c0.3,0.5,0.6,0.9,1,1.3c0.4,0.4,0.8,0.7,1.3,1c0.5,0.3,1.1,0.5,1.6,0.6c0.1,0,0.3,0.1,0.4,0.1c0.2,0,0.4,0,0.6,0.1
					c0.4,0,0.7,0,1.1,0c0.4,0,0.8,0,1.2-0.1c0.4-0.1,0.7-0.2,1.1-0.4c0.2-0.1,0.3-0.1,0.5-0.2c-2.1,4.1-5.8,3.6-7.9,2.9
					c-0.5-0.1-1-0.4-1.4-0.6c-0.1,0-0.1-0.1-0.1-0.1c-1.6-0.9-2.9-2.4-3.5-4c0.3,4.2,3.7,7.5,8,7.5c2.8,0,5.3-1.5,6.7-3.6
					c0,0,0,0,0-0.1l0,0v0c-0.6,5.4-5.4,9.7-10.6,9.7c0,0-0.1,0-0.1,0c-4-0.1-7.6-2.2-9.4-5.5l0,0c-1.2-2.1-2-4.5-2.2-7l0,0
					c-0.3,1.1-0.5,2.2-0.5,3.4c0,2.6,0.9,5.1,2.3,7c-1.5-1.1-2.8-2.5-3.7-4.2c0-0.1-0.1-0.2-0.2-0.3c-0.1-0.1-0.1-0.3-0.2-0.4
					c0,0,0-0.1,0-0.1c-0.4-0.8-0.6-1.6-0.8-2.5c0,0,0,0,0,0c0-0.2-0.1-0.4-0.1-0.6c0,0,0-0.1,0-0.1c0-0.2,0-0.4-0.1-0.5
					c-0.3-4.3,1.6-8.5,3.8-11.3c1.3-1.6,2.8-3,4.4-4.4c1.1-0.9,2.2-1.7,3.3-2.5l5.5-4c-0.6,0.8-2.2,2.5-2.5,2.9
					c-4.7,5.9-11.5,14-7.2,22c1.1,2,2.8,3.6,4.9,4.4c1.2,0.5,2.5,0.7,3.7,0.7c0.6,0,1.1,0,1.7-0.1h0c-5-0.2-9.1-4.4-9.1-9.5
					c0-2.6,0.5-4.9,1.8-7.2c3.2-5.8,7.5-10.8,11.7-15.8c2.4-2.8,5.4-6,6-9.7c0.6-3.4-0.2-7-2.4-9.7c-2.3-2.9-6-4.7-9.8-4.5
					c-3.3,0.1-7.2,1.8-8.6,4.9c0.4-0.4,0.6-0.5,0.9-0.8c0.4-0.3,0.8-0.5,1.1-0.8c2.6-1.5,6.3-1.9,9.2-1.1c2.7,0.8,5.3,2.9,6.6,5.4
					c0.9,1.8,1.1,3.7,0.8,5.5c-0.1,0.6-0.3,1.2-0.6,1.8c-0.2,0.5-0.5,0.9-0.8,1.3c-0.2,0.3-0.4,0.6-0.7,0.9c-0.5,0.5-1,1-1.6,1.4
					c-0.3,0.2-0.6,0.4-1,0.5c-4.8,1.8-6.1-2.3-6.1-2.3c4.1,1.1,6-1.9,6-1.9c1.9-2.9,1-6.8-2-8.5c-3.5-2-8-0.4-11,1.8
					c-2,1.5-3.6,3.3-5.3,5.1c0,0,0,0,0,0v-6.4c0-2.1,1.4-4.9,1.6-5.3c2.4-4.3,7-7.1,12.2-7.1c7.9,0,14.2,6,15.2,13.7
					c0.5,3.5-0.3,7.1-1.8,10.3c-2.5,5.3-6.7,9.5-10.4,13.9C169.8,105.6,166.5,108.9,166.5,112.6z"/>
			</g>
			<g>
				<path class="st0" d="M127,110.5v-0.4c0-0.6-0.5-1-1-1v0.3v3l3.9-1.2c0.1,0.7,0.6,1.6,1.1,2.1c0.4,0.4,0.9,1,1,1.5
					c-1,0.5-2.7,1.1-2.8,1.2c-0.1,0.4-0.2,0.9-0.2,1.4s0.1,0.9,0.2,1.4c-0.7-0.1-1.4-0.4-2-0.9c0,0,0-1,0-1c0-0.6-0.5-1-1-1v3.2
					c0,0,0,0,0,0c0.9,0.7,2,1.1,3.2,1.1c0.5,0,1,0.5,1,1c0.2,0,0.3-0.1,0.3-0.3c0-0.3,0-0.6-0.1-0.8c-0.1-0.3-0.1-0.5-0.1-0.8
					c0-0.5,0.1-0.9,0.3-1.3c0.2,0,0.3-0.1,0.5-0.1c0.2,0,0.5-0.1,0.8-0.1c0.4,0,0.8,0,1.1,0.1c0.2,0.1,0.5,0.1,0.7,0.1
					c0.1,0,0.2,0,0.4,0c0.4,0,0.9-0.1,1.3-0.2c0,0,0.1,0,0.2,0.1c0,0.1-0.1,0.2-0.1,0.2c-0.3,0.2-0.7,0.5-1.2,0.5
					c-0.2,0-0.4,0-0.6,0c0.4,1,0.7,1.8,0.8,1.9c0.4,0.1,0.9,0.2,1.4,0.2s0.9-0.1,1.4-0.2c-0.1,0.7-0.4,1.4-0.9,2c0,0-1,0-1,0
					c-0.6,0-1,0.5-1,1h3.2c0,0,0,0,0,0c0.7-0.9,1.1-2,1.1-3.2c0-0.5,0.5-1,1-1c0-0.2-0.1-0.3-0.3-0.3c-0.3,0-0.6,0-0.8,0.1
					c-0.3,0.1-0.5,0.1-0.8,0.1c-0.5,0-0.9-0.1-1.3-0.3c-0.1-0.4-0.2-0.8-0.2-1.3c0-0.4,0-0.8,0.1-1.1l0,0c0-0.1,0-0.1,0-0.2
					c0.3,0.1,0.5,0.1,0.8,0.1c1.9,0,3.4-1.5,3.4-3.4c0-0.5-0.1-1-0.3-1.5l-0.3-0.6c-0.5-0.9-0.7-2-0.6-3c0.1-1,0.4-1.9,0.9-2.7h0
					c0,0,0.1,0,0.1,0c0.2-0.1,0.4-0.2,0.5-0.3c0.4-0.3,0.6-0.8,0.7-1.3c0-0.1,0-0.1,0-0.2c0,0,0-0.1,0-0.1c0-0.1,0-0.2,0-0.3
					c-0.1,0-0.2,0.1-0.2,0.1c-0.1,0.1-0.2,0.2-0.4,0.3c-0.1,0.1-0.2,0.2-0.3,0.3s-0.2,0.2-0.3,0.3c-0.1,0.1-0.2,0.2-0.3,0.3
					c0,0,0,0,0,0c0,0,0,0.1-0.1,0.1l0,0c0,0,0,0,0,0c0,0,0,0-0.1,0.1c0,0-0.1,0.1-0.1,0.1c0,0,0,0,0,0c-0.6,0.9-1,2-1.1,3.2
					c-0.1,1.2,0.2,2.3,0.7,3.4l0.3,0.6c0.2,0.4,0.3,0.8,0.3,1.2c0,1.5-1.2,2.6-2.6,2.6c0,0-0.1,0-0.1,0c-0.7,0-1.4-0.4-1.8-0.9
					c-0.1-0.1-0.2-0.2-0.2-0.3c-0.5-0.7-0.8-1.6-0.8-2.5l0,0.1v0c0.3,0.4,0.8,0.6,1,0.7c0.1,0,0.1,0,0.1-0.1
					c-0.2-0.5-0.2-1.2-0.1-1.6c0.1-0.4,0.1-0.6,0.3-0.9c0,0,0,0.2,0.2,0.5c0,0,0.1,0,0.1,0c0.1-0.5,0.2-1,0.5-1.5
					c0.1-0.2,0.1-0.3,0.1-0.3c0.1-0.1,0.2-0.3,0.3-0.5c0.1-0.1,0.2-0.3,0.3-0.5l0,0c0,0,0,0,0,0c0,0,0,0,0-0.1s0,0,0,0
					c0,0,0,0,0-0.1s0,0,0,0c0,0,0,0,0-0.1c0,0,0,0,0,0c0,0,0,0,0-0.1c0,0,0,0,0,0c0,0,0,0,0-0.1c0,0,0,0,0,0c0,0,0,0,0-0.1
					c0,0,0,0,0-0.1c0,0,0,0,0-0.1c0,0,0,0,0-0.1c0,0,0,0,0-0.1c0,0,0,0,0-0.1c0,0,0,0,0-0.1s0,0,0-0.1s0,0,0-0.1c0,0,0,0,0-0.1
					s0,0,0-0.1c0,0,0,0,0-0.1s0,0,0-0.1c0,0,0,0,0,0c0,0,0,0,0-0.1c0,0,0,0,0,0c0,0,0,0,0-0.1c0,0,0,0,0,0c0,0,0-0.1,0-0.1
					c0,0,0,0,0,0c0,0,0-0.1,0-0.1c0-1.4-0.6-2.6-1.6-3.4c0.1,0,0.2,0,0.2,0.1c0.1,0,0.1-0.1,0.1-0.1c-0.9-0.7-2-1-3.2-0.9
					c-0.1,0-0.2,0-0.2,0c-0.1,0-0.1,0.1-0.2,0.1l-0.1,0.5c-0.1,0-0.1,0-0.1,0c-0.3,0.1-0.7,0.3-0.8,0.6l-1.2,0.5
					c-0.1,0-0.2,0.1-0.2,0.2c0,0.1,0,0.1,0.1,0.2c0,0.2,0.1,0.9,0.5,1c0,0,0.2-0.1,0.4-0.1l0,0c0,0,0,0,0,0c0,0,0,0,0,0l0,0
					c0.3-0.1,0.8-0.2,0.9,0c0,0,0.3,0.6-0.1,0.7c0,0-0.1,0-0.5,0.1l-0.3,0c0,0-0.1,0-0.2,0c0,0-0.2,0.6,0.2,0.7
					c0.3-0.1,0.6-0.1,0.9-0.1c0.1,0,0.3,0,0.4,0c0.1,0,0.1,0,0.2,0c0.4,0,0.8-0.1,1.3-0.4c0,0-0.2,0.4-0.9,0.6c0,0-0.3,0.1-0.5,0.2
					c-0.1,0-0.2,0-0.3,0.1c-0.6,0.2-1.1,0.6-1.5,1.1c-0.2-0.1-3.7-1.7-3.7-1.7l0.1,0v-0.7c0-0.4-0.3-0.8-0.7-1
					c-0.1-0.1-0.2-0.1-0.4-0.1v0v2.5l3.1,2.2l1.2-0.3c0,0,0.2-0.1,0.2,0.1c0.1,0.2-0.1,0.2-0.1,0.2L127,110.5z"/>
				<path class="st0" d="M111.3,120.4c-0.4,0.1-0.9,0.2-1.4,0.2s-0.9-0.1-1.4-0.2c0.1,0.7,0.4,1.4,0.9,2c0,0,1,0,1,0
					c0.6,0,1,0.5,1,1h-3.2c0,0,0,0,0,0c-0.7-0.9-1.1-2-1.1-3.2c0-0.5-0.5-1-1-1c0-0.2,0.1-0.3,0.3-0.3c0.3,0,0.6,0,0.8,0.1
					c0.3,0.1,0.5,0.1,0.8,0.1c0.5,0,0.9-0.1,1.3-0.3c0.1-0.4,0.2-0.8,0.2-1.3c0-0.4,0-0.8-0.1-1.1l0,0c0-0.1,0-0.1,0-0.2
					c-0.3,0.1-0.5,0.1-0.8,0.1c-1.9,0-3.4-1.5-3.4-3.4c0-0.5,0.1-1,0.3-1.5l0.3-0.6c0.5-0.9,0.7-2,0.6-3c-0.1-1-0.4-1.9-0.9-2.7h0
					c0,0-0.1,0-0.1,0c-0.2-0.1-0.4-0.2-0.5-0.3c-0.4-0.3-0.6-0.8-0.7-1.3c0-0.1,0-0.1,0-0.2c0,0,0-0.1,0-0.1c0-0.1,0-0.2,0-0.3
					c0.1,0,0.2,0.1,0.2,0.1c0.1,0.1,0.2,0.2,0.4,0.3c0.1,0.1,0.2,0.2,0.3,0.3s0.2,0.2,0.3,0.3c0.1,0.1,0.2,0.2,0.3,0.3c0,0,0,0,0,0
					c0,0,0,0.1,0.1,0.1l0,0c0,0,0,0,0,0c0,0,0,0,0.1,0.1c0,0,0.1,0.1,0.1,0.1c0,0,0,0,0,0c0.6,0.9,1,2,1.1,3.2
					c0.1,1.2-0.2,2.3-0.7,3.4l-0.3,0.6c-0.2,0.4-0.3,0.8-0.3,1.2c0,1.5,1.2,2.6,2.6,2.6c0,0,0.1,0,0.1,0c0.7,0,1.4-0.4,1.8-0.9
					c0.1-0.1,0.2-0.2,0.2-0.3c0.5-0.7,0.8-1.6,0.8-2.5l0,0.1v0c-0.3,0.4-0.8,0.6-1,0.7c-0.1,0-0.1,0-0.1-0.1
					c0.2-0.5,0.2-1.2,0.1-1.6c-0.1-0.4-0.1-0.6-0.3-0.9c0,0,0,0.2-0.2,0.5c0,0-0.1,0-0.1,0c-0.1-0.5-0.2-1-0.5-1.5
					c-0.1-0.2-0.1-0.3-0.1-0.3c-0.1-0.1-0.2-0.3-0.3-0.5c-0.1-0.1-0.2-0.3-0.3-0.5l0,0c0,0,0,0,0,0c0,0,0,0,0-0.1s0,0,0,0
					c0,0,0,0,0-0.1s0,0,0,0c0,0,0,0,0-0.1c0,0,0,0,0,0c0,0,0,0,0-0.1c0,0,0,0,0,0c0,0,0,0,0-0.1c0,0,0,0,0,0c0,0,0,0,0-0.1
					c0,0,0,0,0-0.1c0,0,0,0,0-0.1c0,0,0,0,0-0.1c0,0,0,0,0-0.1c0,0,0,0,0-0.1c0,0,0,0,0-0.1s0,0,0-0.1s0,0,0-0.1c0,0,0,0,0-0.1
					s0,0,0-0.1c0,0,0,0,0-0.1s0,0,0-0.1c0,0,0,0,0,0c0,0,0,0,0-0.1c0,0,0,0,0,0c0,0,0,0,0-0.1c0,0,0,0,0,0c0,0,0-0.1,0-0.1
					c0,0,0,0,0,0c0,0,0-0.1,0-0.1c0-1.4,0.6-2.6,1.6-3.4c-0.1,0-0.2,0-0.2,0.1c-0.1,0-0.1-0.1-0.1-0.1c0.9-0.7,2-1,3.2-0.9
					c0.1,0,0.2,0,0.2,0c0.1,0,0.1,0.1,0.2,0.1l0.1,0.5c0.1,0,0.1,0,0.1,0c0.3,0.1,0.7,0.3,0.8,0.6l1.2,0.5c0.1,0,0.2,0.1,0.2,0.2
					c0,0.1,0,0.1-0.1,0.2c0,0.2-0.1,0.9-0.5,1c0,0-0.2-0.1-0.4-0.1l0,0c0,0,0,0,0,0c0,0,0,0,0,0l0,0c-0.3-0.1-0.8-0.2-0.9,0
					c0,0-0.3,0.6,0.1,0.7c0,0,0.1,0,0.5,0.1l0.3,0c0,0,0.1,0,0.2,0c0,0,0.2,0.6-0.2,0.7c-0.3-0.1-0.6-0.1-0.9-0.1
					c-0.1,0-0.3,0-0.4,0c-0.1,0-0.1,0-0.2,0c-0.4,0-0.8-0.1-1.3-0.4c0,0,0.2,0.4,0.9,0.6c0,0,0.3,0.1,0.5,0.2c0.1,0,0.2,0,0.3,0.1
					c0.6,0.2,1.1,0.6,1.5,1.1c0.2-0.1,3.7-1.7,3.7-1.7l-0.1,0v-0.7c0-0.4,0.3-0.8,0.7-1c0.1-0.1,0.2-0.1,0.4-0.1v0v2.5l-3.1,2.2
					l-1.3-0.4c0,0-0.2-0.1-0.2,0.1c-0.1,0.2,0.1,0.2,0.1,0.2l3.5,1.8v-0.4c0-0.6,0.5-1,1-1v0.3v3l-3.9-1.2c-0.1,0.7-0.6,1.6-1.1,2.1
					c-0.4,0.4-0.9,1-1,1.5c1,0.5,2.7,1.1,2.8,1.2c0.1,0.4,0.2,0.9,0.2,1.4s-0.1,0.9-0.2,1.4c0.7-0.1,1.4-0.4,2-0.9c0,0,0-1,0-1
					c0-0.6,0.5-1,1-1v3.2c0,0,0,0,0,0c-0.9,0.7-2,1.1-3.2,1.1c-0.5,0-1,0.5-1,1c-0.2,0-0.3-0.1-0.3-0.3c0-0.3,0-0.6,0.1-0.8
					c0.1-0.3,0.1-0.5,0.1-0.8c0-0.5-0.1-0.9-0.3-1.3c-0.2,0-0.3-0.1-0.5-0.1c-0.2,0-0.5-0.1-0.8-0.1c-0.2,0-0.3,0-0.5,0l0.2-1.6
					c0,0,0-0.2-0.1-0.2s-0.2,0.1-0.2,0.1L111.3,120.4z"/>
			</g>
			<path class="st0" d="M133.7,84.1c-1.3-2.5-4-4.3-7-4.4c-1.1-0.6-2.4-1-3.8-1c-1.4,0-2.6,0.3-3.8,1c-3,0.1-5.6,1.9-7,4.4
				c-2,1.1-3.4,3.2-3.4,5.7c0,1.9,0.9,3.7,2.2,4.8c1,2.6,3.3,4.5,6.1,4.9c2.5,0.4,4.4,2.5,4.4,5.1l0,13.9c0,0.6-0.4,3.4-3.7,3.9
				c-0.3,0-0.8,0-0.8,0c-0.6,0-1.1,0.5-1.1,1.1h3.4h1.5h0.7h2.8l0,0h2.3h3.4c0-0.6-0.5-1.1-1.1-1.1c0,0-0.5,0-0.8,0
				c-3.6-0.5-3.7-3.7-3.7-3.9l0-13.9c0-2.5,1.8-4.5,4.1-5l0.2,0c2.9-0.4,5.2-2.3,6.3-4.9c1.4-1.2,2.2-2.9,2.2-4.8
				C137.2,87.3,135.8,85.1,133.7,84.1z M133.5,92.9l-0.4,0.4l-0.2,0.5c-0.7,1.7-2.1,2.9-3.7,3.4v0c0,0-1.4,0.3-1.8,0.5l0,0
				c-0.1,0.1-0.2,0.2-0.3,0.3c0,0,0,0,0,0c-0.1,0.1-0.2,0.2-0.3,0.2c-0.1,0.1-0.2,0.2-0.4,0.3c-1,0.7-2.2,1-3.4,1s-2.4-0.4-3.4-1
				c-0.1-0.1-0.2-0.2-0.4-0.3c-0.1-0.1-0.2-0.2-0.3-0.2c0,0,0,0,0,0c-0.1-0.1-0.2-0.2-0.3-0.3l0,0c-0.4-0.2-1.8-0.5-1.8-0.5v0
				c-1.7-0.5-3.1-1.7-3.7-3.4l-0.2-0.5l-0.4-0.4c-0.9-0.8-1.5-2-1.5-3.2c0-1.6,0.9-3,2.3-3.8l0.6-0.3l0.3-0.6c1-1.9,3-3.1,5.1-3.2
				l0.5,0l0.5-0.2c0.9-0.5,1.8-0.7,2.7-0.7s1.9,0.2,2.7,0.7l0.5,0.2l0.5,0c2.2,0.1,4.1,1.3,5.1,3.2l0.3,0.6l0.6,0.3
				c1.4,0.7,2.3,2.2,2.3,3.8C135,91,134.5,92.1,133.5,92.9z"/>
		</g>
	</g>
	<path class="st0" d="M136.6,75.8c-1.5,0.9-3.1,1.5-4.8,2h14.1v30.6c0,1.8-0.2,3.5-0.6,5.3c-0.5,2-1.2,3.8-2.1,5.6
		c-0.1,0.2-0.2,0.4-0.3,0.6c-4.1,7.1-11.7,11.5-19.9,11.5s-15.8-4.4-19.9-11.5c-0.1-0.2-0.2-0.4-0.3-0.6c-1-1.8-1.7-3.6-2.1-5.6
		c-0.4-1.7-0.6-3.5-0.6-5.3V77.8h14.3c-2.1-0.6-3.8-1.4-4.9-2H98.1v32.6c0,2,0.2,3.9,0.7,5.7c0.5,2.1,1.3,4.2,2.3,6.1
		c0.1,0.2,0.2,0.4,0.4,0.7c4.3,7.5,12.4,12.5,21.6,12.5s17.3-5,21.6-12.5c0.1-0.2,0.2-0.4,0.4-0.7c1-1.9,1.8-3.9,2.3-6.1
		c0.4-1.8,0.7-3.8,0.7-5.7V75.8H136.6z"/>
	<polygon class="st0" points="151.8,76.3 151.2,75.8 150.3,76.8 149.3,75.8 148.8,76.3 149.8,77.3 148.8,78.2 149.3,78.8 
		150.3,77.8 151.2,78.8 151.8,78.2 150.8,77.3 	"/>
	<polygon class="st0" points="97,76.3 96.5,75.8 95.6,76.8 94.6,75.8 94.1,76.3 95.1,77.3 94.1,78.2 94.6,78.8 95.6,77.8 96.5,78.8 
		97,78.2 96.1,77.3 	"/>
	<polygon class="st0" points="151.8,99.8 151.2,99.2 150.3,100.2 149.3,99.2 148.8,99.8 149.8,100.7 148.8,101.7 149.3,102.2 
		150.3,101.2 151.2,102.2 151.8,101.7 150.8,100.7 	"/>
	<polygon class="st0" points="97,99.8 96.5,99.2 95.6,100.2 94.6,99.2 94.1,99.8 95.1,100.7 94.1,101.7 94.6,102.2 95.6,101.2 
		96.5,102.2 97,101.7 96.1,100.7 	"/>
	<polygon class="st0" points="102.5,124.1 102,123.6 101,124.5 100.1,123.6 99.6,124.1 100.5,125 99.6,126 100.1,126.5 101,125.5 
		102,126.5 102.5,126 101.5,125 	"/>
	<polygon class="st0" points="146.4,124.1 145.9,123.6 144.9,124.5 144,123.6 143.5,124.1 144.4,125 143.5,126 144,126.5 
		144.9,125.5 145.9,126.5 146.4,126 145.4,125 	"/>
	<polygon class="st0" points="124.4,134.7 123.9,134.2 123,135.2 122,134.2 121.5,134.7 122.5,135.7 121.5,136.6 122,137.1 
		123,136.2 123.9,137.1 124.4,136.6 123.5,135.7 	"/>
</g>
</svg>
