<?xml version="1.0" encoding="utf-8"?>
<!-- Generator: Adobe Illustrator 23.0.2, SVG Export Plug-In . SVG Version: 6.00 Build 0)  -->
<svg version="1.1" id="Capa_1" xmlns="http://www.w3.org/2000/svg" xmlns:xlink="http://www.w3.org/1999/xlink" x="0px" y="0px"
	 viewBox="0 0 28.8 28.8" style="enable-background:new 0 0 28.8 28.8;" xml:space="preserve">
<style type="text/css">
	.st0{fill:#034A7D;}
</style>
<title>ico_reimp</title>
<g>
	<path class="st0" d="M15.6,12H18h5.3l-8.9-8.1v4.5v2.4C14.4,11.4,14.9,12,15.6,12z"/>
	<path class="st0" d="M12.1,20.6c0,2.3,1.9,4.2,4.2,4.2s4.2-1.9,4.2-4.2c0-2.3-1.9-4.2-4.2-4.2S12.1,18.3,12.1,20.6z M16.8,17.7v2.4
		h0.6h1c0.3,0,0.5,0.2,0.5,0.5c0,0.3-0.2,0.5-0.5,0.5h-1h-0.6h-0.5h0c-0.3,0-0.5-0.2-0.5-0.5v-2.9c0-0.3,0.2-0.5,0.5-0.5
		C16.6,17.2,16.8,17.4,16.8,17.7z"/>
	<path class="st0" d="M15.6,13.2c-1.3,0-2.4-1.1-2.4-2.4V8.3V3.9H6.7C6,3.9,5.5,4.4,5.5,5.1v21c0,0.7,0.5,1.2,1.2,1.2h15.4
		c0.7,0,1.2-0.5,1.2-1.2v-3.2v-9.7H18H15.6z M21.5,20.6c0,2.8-2.3,5.2-5.2,5.2c-2.8,0-5.2-2.3-5.2-5.2c0-2.8,2.3-5.2,5.2-5.2
		C19.2,15.4,21.5,17.7,21.5,20.6z"/>
</g>
</svg>
