<?xml version="1.0" encoding="utf-8"?>
<!-- Generator: Adobe Illustrator 23.0.2, SVG Export Plug-In . SVG Version: 6.00 Build 0)  -->
<svg version="1.1" id="Capa_1" xmlns="http://www.w3.org/2000/svg" xmlns:xlink="http://www.w3.org/1999/xlink" x="0px" y="0px"
	 viewBox="0 0 28.8 28.8" style="enable-background:new 0 0 28.8 28.8;" xml:space="preserve">
<style type="text/css">
	.st0{fill-rule:evenodd;clip-rule:evenodd;fill:#034A7D;}
</style>
<title>ico_reimp</title>
<path id="DOCUMENT__x2F__UPLOAD_2_" class="st0" d="M24,23.3c-0.3,0-0.6-0.1-0.9-0.4l-0.8-0.8v5.6c0,0.7-0.5,1.2-1.2,1.2
	c-0.7,0-1.2-0.5-1.2-1.2v-5.6l-0.8,0.8c-0.2,0.2-0.5,0.4-0.9,0.4c-0.7,0-1.2-0.5-1.2-1.2c0-0.3,0.1-0.6,0.4-0.9l2.9-2.9
	c0.2-0.2,0.5-0.4,0.9-0.4c0.3,0,0.6,0.1,0.9,0.4l2.9,2.9c0.2,0.2,0.4,0.5,0.4,0.9C25.2,22.7,24.7,23.3,24,23.3z M16.6,20.3
	c-0.4,0.4-0.7,1.1-0.7,1.7c0,1.3,1.1,2.4,2.4,2.4c0.1,0,0.3,0,0.4,0v2.9H4.4c-0.7,0-1.2-0.5-1.2-1.2V4.9c0-0.7,0.5-1.2,1.2-1.2h2.9
	l0,0H11v4.5v2.4c0,1.4,1.1,2.4,2.4,2.4h2.4h5.3v3.7c-0.7,0-1.3,0.3-1.7,0.7L16.6,20.3z M13.4,11.9c-0.7,0-1.2-0.5-1.2-1.2V8.2V3.7h0
	l8.9,8.2h-5.3H13.4z"/>
</svg>
