<?xml version="1.0" encoding="utf-8"?>
<!-- Generator: Adobe Illustrator 23.0.2, SVG Export Plug-In . SVG Version: 6.00 Build 0)  -->
<svg version="1.1" id="Capa_1" xmlns="http://www.w3.org/2000/svg" xmlns:xlink="http://www.w3.org/1999/xlink" x="0px" y="0px"
	 viewBox="0 0 28.8 28.8" style="enable-background:new 0 0 28.8 28.8;" xml:space="preserve">
<style type="text/css">
	.st0{fill:#034A7D;}
</style>
<title>ico_reimp</title>
<g>
	<path class="st0" d="M0.6,9.9v8.2v5.2v2.6c0,0.7,0.6,1.3,1.3,1.3H4V16.8v-0.4V8.6H1.9C1.2,8.6,0.6,9.2,0.6,9.9z"/>
	<path class="st0" d="M26.9,8.6h-2.2v8.2v10.3h2.2c0.7,0,1.3-0.6,1.3-1.3v-2.6v-5.2V9.9C28.2,9.2,27.6,8.6,26.9,8.6z"/>
	<path class="st0" d="M14.4,2.1c-3.6,0-6.5,2.9-6.5,6.5H5.3v7.8v0.4v10.3h7.2v-8.2l-1.2,1.2c-0.3,0.3-0.8,0.6-1.3,0.6
		c-1.1,0-1.9-0.9-1.9-1.9c0-0.5,0.2-1,0.6-1.3L13,13c0.3-0.3,0.8-0.6,1.3-0.6c0.5,0,1,0.2,1.3,0.6l4.4,4.4c0.3,0.3,0.6,0.8,0.6,1.3
		c0,1.1-0.9,1.9-1.9,1.9c-0.5,0-1-0.2-1.3-0.6l-1.2-1.2v8.2h7.2V16.8V8.6h-2.6C20.8,5,17.9,2.1,14.4,2.1z M10.5,8.6
		c0-2.1,1.7-3.9,3.9-3.9s3.9,1.7,3.9,3.9H10.5z"/>
</g>
</svg>
