<?xml version="1.0" encoding="utf-8"?>
<!-- Generator: Adobe Illustrator 23.0.2, SVG Export Plug-In . SVG Version: 6.00 Build 0)  -->
<svg version="1.1" id="Capa_1" xmlns="http://www.w3.org/2000/svg" xmlns:xlink="http://www.w3.org/1999/xlink" x="0px" y="0px"
	 viewBox="0 0 28.8 28.8" style="enable-background:new 0 0 28.8 28.8;" xml:space="preserve">
<style type="text/css">
	.st0{fill-rule:evenodd;clip-rule:evenodd;fill:#034A7D;}
</style>
<title>ico_reimp</title>
<path id="CIRCLE__x2F__DELETE_2_" class="st0" d="M14.4,27.3C7.5,27.3,2,21.8,2,14.9C2,8.1,7.5,2.5,14.4,2.5
	c6.9,0,12.4,5.6,12.4,12.4C26.8,21.8,21.2,27.3,14.4,27.3z M14.4,4.8C8.8,4.8,4.3,9.3,4.3,14.9S8.8,25,14.4,25
	c5.6,0,10.1-4.5,10.1-10.1S19.9,4.8,14.4,4.8z M18.6,20.3c-0.3,0-0.6-0.1-0.8-0.3l0,0l-3.4-3.4L10.9,20l0,0
	c-0.2,0.2-0.5,0.3-0.8,0.3c-0.6,0-1.2-0.5-1.2-1.2c0-0.3,0.1-0.6,0.3-0.8l0,0l3.4-3.4l-3.4-3.4l0,0c-0.2-0.2-0.3-0.5-0.3-0.8
	c0-0.6,0.5-1.2,1.2-1.2c0.3,0,0.6,0.1,0.8,0.3l0,0l3.4,3.4l3.4-3.4l0,0c0.2-0.2,0.5-0.3,0.8-0.3c0.6,0,1.2,0.5,1.2,1.2
	c0,0.3-0.1,0.6-0.3,0.8l0,0L16,14.9l3.4,3.4l0,0c0.2,0.2,0.3,0.5,0.3,0.8C19.8,19.8,19.3,20.3,18.6,20.3z"/>
</svg>
