<?xml version="1.0" encoding="utf-8"?>
<!-- Generator: Adobe Illustrator 23.0.2, SVG Export Plug-In . SVG Version: 6.00 Build 0)  -->
<svg version="1.1" id="Capa_1" xmlns="http://www.w3.org/2000/svg" xmlns:xlink="http://www.w3.org/1999/xlink" x="0px" y="0px"
	 viewBox="0 0 28.8 28.8" style="enable-background:new 0 0 28.8 28.8;" xml:space="preserve">
<style type="text/css">
	.st0{fill-rule:evenodd;clip-rule:evenodd;fill:#034A7D;}
</style>
<title>ico_reimp</title>
<path id="PEN_3_2_" class="st0" d="M26.2,6.9l-2.5,2.5l-3.4-3.3l2.5-2.5c0.5-0.5,1.2-0.5,1.7,0l1.7,1.7C26.6,5.7,26.6,6.5,26.2,6.9z
	 M8.5,17.8l3.4,3.4l-4.5,1.1L8.5,17.8z M22.8,10.3l-10.1,10L9.4,17l10.1-10L22.8,10.3z M4.6,6.8v18.3h18.3V11.9l2.4-2.4v16.8
	c0,0.7-0.5,1.2-1.2,1.2H3.4c-0.7,0-1.2-0.5-1.2-1.2V5.7c0-0.7,0.5-1.2,1.2-1.2h16.8l-2.4,2.4H4.6z"/>
</svg>
