<?xml version="1.0" encoding="utf-8"?>
<!-- Generator: Adobe Illustrator 23.0.2, SVG Export Plug-In . SVG Version: 6.00 Build 0)  -->
<svg version="1.1" id="Capa_1" xmlns="http://www.w3.org/2000/svg" xmlns:xlink="http://www.w3.org/1999/xlink" x="0px" y="0px"
	 viewBox="0 0 28.8 28.8" style="enable-background:new 0 0 28.8 28.8;" xml:space="preserve">
<style type="text/css">
	.st0{fill-rule:evenodd;clip-rule:evenodd;fill:#034A7D;}
</style>
<title>ico_reimp</title>
<path id="PEN_2_1_" class="st0" d="M24.2,23.2H4.5c-0.6,0-1-0.5-1-1c0-0.6,0.5-1,1-1h19.7c0.6,0,1,0.5,1,1
	C25.3,22.7,24.8,23.2,24.2,23.2z M24.2,27.3H4.5c-0.6,0-1-0.5-1-1c0-0.6,0.5-1,1-1h19.7c0.6,0,1,0.5,1,1
	C25.3,26.9,24.8,27.3,24.2,27.3z M20.1,8l-2.9-2.9L19.4,3c0.4-0.4,1-0.4,1.4,0l1.4,1.4c0.4,0.4,0.4,1,0,1.4L20.1,8z M10.8,17.4
	l-2.9-2.9l8.6-8.6l2.9,2.9L10.8,17.4z M6.2,19l1-3.8l2.9,2.9L6.2,19z"/>
</svg>
