<svg xmlns="http://www.w3.org/2000/svg" xmlns:xlink="http://www.w3.org/1999/xlink" width="214" height="214" viewBox="0 0 214 214">
  <defs>
    <filter id="Rectángulo_1112" x="0" y="0" width="214" height="214" filterUnits="userSpaceOnUse">
      <feOffset dy="3" input="SourceAlpha"/>
      <feGaussianBlur stdDeviation="3" result="blur"/>
      <feFlood flood-opacity="0.161"/>
      <feComposite operator="in" in2="blur"/>
      <feComposite in="SourceGraphic"/>
    </filter>
    <clipPath id="clip-path">
      <rect id="Rectángulo_1131" data-name="Rectángulo 1131" width="53" height="72" fill="#496a91"/>
    </clipPath>
  </defs>
  <g id="ico-factura" transform="translate(-417 -468)">
    <g transform="matrix(1, 0, 0, 1, 417, 468)" filter="url(#Rectángulo_1112)">
      <rect id="Rectángulo_1112-2" data-name="Rectángulo 1112" width="196" height="196" rx="10" transform="translate(9 6)" fill="#f7f7f7"/>
    </g>
    <rect id="Rectángulo_1127" data-name="Rectángulo 1127" width="132" height="132" rx="66" transform="translate(458 506)" fill="#fa922b"/>
    <g id="Grupo_1020" data-name="Grupo 1020" transform="translate(497.5 536)">
      <g id="Grupo_1019" data-name="Grupo 1019" transform="translate(0.5)" clip-path="url(#clip-path)">
        <path id="Trazado_744" data-name="Trazado 744" d="M31.315,19.012V0H3.355A3.347,3.347,0,0,0,0,3.355V68.221a3.347,3.347,0,0,0,3.355,3.355H50.327a3.347,3.347,0,0,0,3.355-3.355V22.368H34.67a3.365,3.365,0,0,1-3.355-3.355M40.262,52a1.682,1.682,0,0,1-1.678,1.678H15.1A1.682,1.682,0,0,1,13.421,52V50.886A1.682,1.682,0,0,1,15.1,49.209H38.584a1.682,1.682,0,0,1,1.678,1.678Zm0-8.947a1.682,1.682,0,0,1-1.678,1.678H15.1a1.682,1.682,0,0,1-1.678-1.678V41.939A1.682,1.682,0,0,1,15.1,40.262H38.584a1.682,1.682,0,0,1,1.678,1.678Zm0-10.065V34.11a1.682,1.682,0,0,1-1.678,1.678H15.1a1.682,1.682,0,0,1-1.678-1.678V32.992A1.682,1.682,0,0,1,15.1,31.315H38.584a1.682,1.682,0,0,1,1.678,1.678M53.682,17.041v.853H35.788V0h.853a3.353,3.353,0,0,1,2.377.979L52.7,14.679a3.344,3.344,0,0,1,.979,2.363" transform="translate(-0.314)" fill="#496a91"/>
      </g>
    </g>
    <rect id="Rectángulo_1135" data-name="Rectángulo 1135" width="19" height="19" rx="9.5" transform="translate(479 511)" fill="#ffdc48"/>
  </g>
</svg>
