<svg xmlns="http://www.w3.org/2000/svg" xmlns:xlink="http://www.w3.org/1999/xlink" width="214" height="214" viewBox="0 0 214 214">
  <defs>
    <filter id="Rectángulo_1112" x="0" y="0" width="214" height="214" filterUnits="userSpaceOnUse">
      <feOffset dy="3" input="SourceAlpha"/>
      <feGaussianBlur stdDeviation="3" result="blur"/>
      <feFlood flood-opacity="0.161"/>
      <feComposite operator="in" in2="blur"/>
      <feComposite in="SourceGraphic"/>
    </filter>
    <clipPath id="clip-path">
      <rect id="Rectángulo_1137" data-name="Rectángulo 1137" width="79.992" height="55.993" fill="#496a91"/>
    </clipPath>
  </defs>
  <g id="ico-unidadpres" transform="translate(-417 -468)">
    <g transform="matrix(1, 0, 0, 1, 417, 468)" filter="url(#Rectángulo_1112)">
      <rect id="Rectángulo_1112-2" data-name="Rectángulo 1112" width="196" height="196" rx="10" transform="translate(9 6)" fill="#f7f7f7"/>
    </g>
    <rect id="Rectángulo_1127" data-name="Rectángulo 1127" width="132" height="132" rx="66" transform="translate(458 506)" fill="#fa922b"/>
    <rect id="Rectángulo_1133" data-name="Rectángulo 1133" width="19" height="19" rx="9.5" transform="translate(563 517)" fill="#ffdc48"/>
    <g id="Grupo_1029" data-name="Grupo 1029" transform="translate(484.004 544.003)">
      <g id="Grupo_1028" data-name="Grupo 1028" clip-path="url(#clip-path)">
        <path id="Trazado_746" data-name="Trazado 746" d="M77.636,2.807A37.012,37.012,0,0,0,63.086,0C47.692,0,32.3,7.792,16.9,7.792A37.922,37.922,0,0,1,5.324,6.077a4.274,4.274,0,0,0-1.294-.2A3.977,3.977,0,0,0,0,9.85V49.5a3.975,3.975,0,0,0,2.355,3.682A36.992,36.992,0,0,0,16.9,55.993c15.394,0,30.789-7.793,46.183-7.793a37.922,37.922,0,0,1,11.58,1.715,4.273,4.273,0,0,0,1.294.2,3.977,3.977,0,0,0,4.031-3.976V6.49A3.98,3.98,0,0,0,77.636,2.807ZM40,40c-5.523,0-10-5.373-10-12s4.477-12,10-12,10,5.372,10,12S45.516,40,40,40" transform="translate(0 0)" fill="#496a91"/>
      </g>
    </g>
  </g>
</svg>
