<svg xmlns="http://www.w3.org/2000/svg" xmlns:xlink="http://www.w3.org/1999/xlink" width="214" height="214" viewBox="0 0 214 214">
  <defs>
    <filter id="Rectángulo_1112" x="0" y="0" width="214" height="214" filterUnits="userSpaceOnUse">
      <feOffset dy="3" input="SourceAlpha"/>
      <feGaussianBlur stdDeviation="3" result="blur"/>
      <feFlood flood-opacity="0.161"/>
      <feComposite operator="in" in2="blur"/>
      <feComposite in="SourceGraphic"/>
    </filter>
    <clipPath id="clip-path">
      <rect id="Rectángulo_1128" data-name="Rectángulo 1128" width="65" height="65" transform="translate(0 0.149)" fill="#fff"/>
    </clipPath>
  </defs>
  <g id="ico-solicitudes" transform="translate(-417 -468)">
    <g transform="matrix(1, 0, 0, 1, 417, 468)" filter="url(#Rectángulo_1112)">
      <rect id="Rectángulo_1112-2" data-name="Rectángulo 1112" width="196" height="196" rx="10" transform="translate(9 6)" fill="#f7f7f7"/>
    </g>
    <rect id="Rectángulo_1127" data-name="Rectángulo 1127" width="132" height="132" rx="66" transform="translate(458 506)" fill="#fa922b"/>
    <rect id="Rectángulo_1132" data-name="Rectángulo 1132" width="19" height="19" rx="9.5" transform="translate(563 601)" fill="#496a91"/>
    <g id="Grupo_1014" data-name="Grupo 1014" transform="translate(492 539.82)">
      <g id="Grupo_1013" data-name="Grupo 1013" transform="translate(0 0.031)" clip-path="url(#clip-path)">
        <path id="Trazado_741" data-name="Trazado 741" d="M45.439,41.944H65.246V3.5a3.487,3.487,0,0,0-3.5-3.5H3.5A3.487,3.487,0,0,0,0,3.5V61.751a3.487,3.487,0,0,0,3.5,3.5H41.944V45.439a3.506,3.506,0,0,1,3.5-3.5m18.787,8.01L49.954,64.226a3.493,3.493,0,0,1-2.476,1.019H46.6V46.6H65.246v.888a3.484,3.484,0,0,1-1.019,2.461" transform="translate(0 -0.097)" fill="#ffdc48"/>
      </g>
    </g>
  </g>
</svg>
