<svg xmlns="http://www.w3.org/2000/svg" xmlns:xlink="http://www.w3.org/1999/xlink" width="214" height="214" viewBox="0 0 214 214">
  <defs>
    <filter id="Rectángulo_1112" x="0" y="0" width="214" height="214" filterUnits="userSpaceOnUse">
      <feOffset dy="3" input="SourceAlpha"/>
      <feGaussianBlur stdDeviation="3" result="blur"/>
      <feFlood flood-opacity="0.161"/>
      <feComposite operator="in" in2="blur"/>
      <feComposite in="SourceGraphic"/>
    </filter>
    <clipPath id="clip-path">
      <rect id="Rectángulo_1129" data-name="Rectángulo 1129" width="64" height="74" transform="translate(0.053)" fill="#ffdc48"/>
    </clipPath>
  </defs>
  <g id="ico-inventarios" transform="translate(-417 -468)">
    <g transform="matrix(1, 0, 0, 1, 417, 468)" filter="url(#Rectángulo_1112)">
      <rect id="Rectángulo_1112-2" data-name="Rectángulo 1112" width="196" height="196" rx="10" transform="translate(9 6)" fill="#f7f7f7"/>
    </g>
    <rect id="Rectángulo_1127" data-name="Rectángulo 1127" width="132" height="132" rx="66" transform="translate(458 506)" fill="#496a91"/>
    <g id="Grupo_1016" data-name="Grupo 1016" transform="translate(491.572 535)">
      <g id="Grupo_1015" data-name="Grupo 1015" transform="translate(0.375)" clip-path="url(#clip-path)">
        <path id="Trazado_742" data-name="Trazado 742" d="M45.947,64.326V70.07A3.446,3.446,0,0,1,42.5,73.516H3.446A3.446,3.446,0,0,1,0,70.07V17.23a3.446,3.446,0,0,1,3.446-3.446H13.784v42.5a8.05,8.05,0,0,0,8.041,8.041Zm0-49.393V0H21.825a3.446,3.446,0,0,0-3.446,3.446V56.285a3.446,3.446,0,0,0,3.446,3.446H60.88a3.446,3.446,0,0,0,3.446-3.446V18.379H49.393a3.456,3.456,0,0,1-3.446-3.446m17.37-4.455L53.849,1.009A3.446,3.446,0,0,0,51.412,0h-.87V13.784H64.326v-.87a3.446,3.446,0,0,0-1.009-2.437" transform="translate(-0.273 0)" fill="#ffdc48"/>
      </g>
    </g>
    <rect id="Rectángulo_1133" data-name="Rectángulo 1133" width="19" height="19" rx="9.5" transform="translate(473 516)" fill="#fa922b"/>
  </g>
</svg>
