<?xml version="1.0" encoding="utf-8"?>
<!-- Generator: Adobe Illustrator 23.0.2, SVG Export Plug-In . SVG Version: 6.00 Build 0)  -->
<svg version="1.1" id="Capa_1" xmlns="http://www.w3.org/2000/svg" xmlns:xlink="http://www.w3.org/1999/xlink" x="0px" y="0px"
	 viewBox="0 0 28.8 28.8" style="enable-background:new 0 0 28.8 28.8;" xml:space="preserve">
<style type="text/css">
	.st0{fill-rule:evenodd;clip-rule:evenodd;fill:#034A7D;}
</style>
<title>ico_reimp</title>
<g>
	<g id="Layer_1">
		<path class="st0" d="M17.1,3.1l0.7-1.4c0.1-0.2,0.3-0.3,0.5-0.2c0.2,0.1,0.3,0.3,0.2,0.5l-0.3,0.7c2.1-1.1,4.7-0.3,5.8,1.7
			c0.7,1.2,0.7,2.7,0.1,3.9l0,0c-0.1,0.2-0.3,0.3-0.5,0.2c-0.2-0.1-0.3-0.3-0.2-0.5c0.8-1.7,0.1-3.8-1.6-4.6c-1-0.5-2.2-0.5-3.2,0.1
			l0.6,0.3c0.2,0.1,0.3,0.3,0.3,0.5c-0.1,0.2-0.3,0.3-0.5,0.3c0,0-0.1,0-0.1-0.1l-1-0.5l-0.2-0.1l-0.4-0.2C17.1,3.5,17,3.3,17.1,3.1
			z"/>
		<path id="DOCUMENT" class="st0" d="M20.3,27.3h-15c-0.7,0-1.2-0.5-1.2-1.2l0,0V5.7c0-0.7,0.5-1.2,1.2-1.2h6.3v6.7
			c0,1.3,1,2.3,2.3,2.4h7.5v12.6C21.5,26.8,21,27.3,20.3,27.3z M14,12.4c-0.7,0-1.2-0.5-1.2-1.2c0,0,0,0,0,0V4.5l8.6,7.9H14z"/>
	</g>
</g>
</svg>
