<?xml version="1.0" encoding="utf-8"?>
<!-- Generator: Adobe Illustrator 23.0.2, SVG Export Plug-In . SVG Version: 6.00 Build 0)  -->
<svg version="1.1" id="Capa_1" xmlns="http://www.w3.org/2000/svg" xmlns:xlink="http://www.w3.org/1999/xlink" x="0px" y="0px"
	 viewBox="0 0 28.8 28.8" style="enable-background:new 0 0 28.8 28.8;" xml:space="preserve">
<style type="text/css">
	.st0{fill-rule:evenodd;clip-rule:evenodd;fill:#034A7D;}
</style>
<title>ico_reimp</title>
<path id="CIRCLE__x2F__OK_2_" class="st0" d="M14.4,27.3C7.5,27.3,2,21.8,2,14.9C2,8.1,7.5,2.5,14.4,2.5s12.4,5.6,12.4,12.4
	C26.8,21.8,21.2,27.3,14.4,27.3z M14.4,4.8C8.8,4.8,4.3,9.3,4.3,14.9S8.8,25,14.4,25c5.6,0,10.1-4.5,10.1-10.1S19.9,4.8,14.4,4.8z
	 M19.9,12.6l-6.2,6.2l0,0c-0.2,0.2-0.5,0.3-0.8,0.3S12.2,19,12,18.8l0,0l-3.5-3.5l0,0c-0.2-0.2-0.3-0.5-0.3-0.8
	c0-0.6,0.5-1.2,1.2-1.2c0.3,0,0.6,0.1,0.8,0.3l0,0l2.7,2.7l5.4-5.4l0,0c0.2-0.2,0.5-0.3,0.8-0.3c0.6,0,1.2,0.5,1.2,1.2
	C20.2,12.1,20.1,12.4,19.9,12.6L19.9,12.6z M19.8,10.6C19.8,10.6,19.8,10.6,19.8,10.6L19.8,10.6L19.8,10.6z M10.1,20.3L10.1,20.3
	L10.1,20.3C10.1,20.3,10.1,20.3,10.1,20.3z M18.6,20.3L18.6,20.3L18.6,20.3L18.6,20.3z M19.8,19.2L19.8,19.2
	C19.8,19.2,19.8,19.2,19.8,19.2C19.8,19.2,19.8,19.2,19.8,19.2z"/>
</svg>
