<?xml version="1.0" encoding="utf-8"?>
<!-- Generator: Adobe Illustrator 23.0.2, SVG Export Plug-In . SVG Version: 6.00 Build 0)  -->
<svg version="1.1" id="Capa_1" xmlns="http://www.w3.org/2000/svg" xmlns:xlink="http://www.w3.org/1999/xlink" x="0px" y="0px"
	 viewBox="0 0 28.8 28.8" style="enable-background:new 0 0 28.8 28.8;" xml:space="preserve">
<style type="text/css">
	.st0{fill-rule:evenodd;clip-rule:evenodd;fill:#034A7D;}
</style>
<title>ico_reimp</title>
<path id="CIRCLE__x2F__SKIP_NEXT_1_" class="st0" d="M14.4,27.4c-6.9,0-12.5-5.6-12.5-12.5C1.9,8,7.5,2.4,14.4,2.4S26.8,8,26.8,14.9
	C26.8,21.8,21.3,27.4,14.4,27.4z M14.4,4.8C8.8,4.8,4.3,9.3,4.3,14.9S8.8,25,14.4,25c5.6,0,10.1-4.5,10.1-10.1S20,4.8,14.4,4.8z
	 M22.2,16.1h-6.6v6.6c0,0.6-0.5,1.2-1.2,1.2c-0.6,0-1.2-0.5-1.2-1.2v-6.6H6.6c-0.6,0-1.2-0.5-1.2-1.2c0-0.6,0.5-1.2,1.2-1.2h6.6V7.1
	c0-0.6,0.5-1.2,1.2-1.2c0.6,0,1.2,0.5,1.2,1.2v6.6h6.6c0.6,0,1.2,0.5,1.2,1.2C23.3,15.6,22.8,16.1,22.2,16.1z"/>
</svg>
