<?xml version="1.0" encoding="utf-8"?>
<!-- Generator: Adobe Illustrator 23.0.2, SVG Export Plug-In . SVG Version: 6.00 Build 0)  -->
<svg version="1.1" id="Capa_1" xmlns="http://www.w3.org/2000/svg" xmlns:xlink="http://www.w3.org/1999/xlink" x="0px" y="0px"
	 viewBox="0 0 28.8 28.8" style="enable-background:new 0 0 28.8 28.8;" xml:space="preserve">
<style type="text/css">
	.st0{fill-rule:evenodd;clip-rule:evenodd;fill:#034A7D;}
</style>
<title>ico_reimp</title>
<path id="DOCUMENT__x2F__DELETE_1_" class="st0" d="M25.1,23.1l-1.6,1.6l1.6,1.6c0.2,0.2,0.4,0.5,0.4,0.9c0,0.7-0.5,1.2-1.2,1.2
	c-0.3,0-0.6-0.1-0.9-0.4l-1.6-1.6L20.3,28c-0.2,0.2-0.5,0.4-0.9,0.4c-0.7,0-1.2-0.5-1.2-1.2c0-0.3,0.1-0.6,0.4-0.9l0,0l1.6-1.6
	l-1.6-1.6c-0.2-0.2-0.4-0.5-0.4-0.9c0-0.7,0.5-1.2,1.2-1.2c0.3,0,0.6,0.1,0.9,0.4l1.6,1.6l1.6-1.6l0,0c0.2-0.2,0.5-0.4,0.9-0.4
	c0.7,0,1.2,0.5,1.2,1.2C25.5,22.6,25.4,22.9,25.1,23.1z M21.5,20.9L21.5,20.9l-0.3-0.3l0,0c-0.4-0.4-1-0.7-1.7-0.7
	c-1.3,0-2.4,1.1-2.4,2.4c0,0.7,0.3,1.3,0.7,1.7l0,0l0.7,0.7l-0.7,0.7l0,0c-0.4,0.4-0.7,1-0.7,1.7h-0.8v0H4.9c-0.7,0-1.2-0.5-1.2-1.2
	v-21c0-0.7,0.5-1.2,1.2-1.2h2.8h3.6v4.4v2.4c0,1.3,1.1,2.4,2.4,2.4h2.4h5.2v6.9l0,0V20.9z M13.8,11.8c-0.7,0-1.2-0.5-1.2-1.2V8.1
	V3.7l8.9,8.1h-5.2H13.8z"/>
</svg>
